# xmcd
#
# Track frame offsets:
#	150
#	18212
#	37090
#	52362
#	66689
#	84325
#	107973
#	122327
#	142477
#	158961
#	176264
#	192700
#	210999
#	224921
#	243037
#
# Disc length: 3473 seconds
#
# Revision: 1
# Processed by: cddbd v1.5.2PL0 Copyright (c) Steve Scherf et al.
# Submitted via: audiograbber 1.83.01
#
DISCID=ea0d8f0f
DTITLE=Chartbuster - 60410
DYEAR=2009
DGENRE=Karaoke
TTITLE0=Rascal Flatts - Unstoppable
TTITLE1=Luke Bryan - Do I
TTITLE2=Taylor Swift - Crazier
TTITLE3=Tracy Lawrence - Up To Him
TTITLE4=Miranda Lambert - Dead Flowers
TTITLE5=Trace Adkins - Til The Last Shot's Fired
TTITLE6=Wyonna - I Hear You Knocking
TTITLE7=Hank Williams Jr - Red, White and Pinkslip Blues
TTITLE8=Jesse Lee - It's A Girl Thing
TTITLE9=Pat Green - What I'm For
TTITLE10=Heidi Newfield - What Am I Waiting For
TTITLE11=Darius Ricker - Alright By Me
TTITLE12=Holly Williams - Mama
TTITLE13=Phil Vasser - Bobby With An I
TTITLE14=James Otto - Since You Brought It Up
EXTD=
EXTT0=
EXTT1=
EXTT2=
EXTT3=
EXTT4=
EXTT5=
EXTT6=
EXTT7=
EXTT8=
EXTT9=
EXTT10=
EXTT11=
EXTT12=
EXTT13=
EXTT14=
PLAYORDER=
